<svg xmlns="http://www.w3.org/2000/svg" width="27.107" height="18.746" viewBox="0 0 27.107 18.746">
  <path id="Icon_awesome-home" data-name="Icon awesome-home" d="M13.193,7.117,4.517,13.472V20.33A.715.715,0,0,0,5.27,21l5.273-.012a.714.714,0,0,0,.749-.67V16.313a.715.715,0,0,1,.753-.67h3.012a.715.715,0,0,1,.753.67v4a.634.634,0,0,0,.22.475.8.8,0,0,0,.533.2L21.834,21a.715.715,0,0,0,.753-.67V13.467l-8.674-6.35A.63.63,0,0,0,13.193,7.117Zm13.7,4.319L22.964,8.552v-5.8a.536.536,0,0,0-.565-.5H19.764a.536.536,0,0,0-.565.5V5.794L14.986,2.712a2.479,2.479,0,0,0-2.871,0L.2,11.436a.465.465,0,0,0-.075.707l1.2,1.3a.588.588,0,0,0,.382.181.614.614,0,0,0,.414-.113L13.193,5.4a.63.63,0,0,1,.72,0l11.069,8.108a.614.614,0,0,0,.8-.067l1.2-1.3a.465.465,0,0,0,.126-.369.489.489,0,0,0-.206-.339Z" transform="translate(0.001 -2.254)"/>
</svg>
