<svg xmlns="http://www.w3.org/2000/svg" width="25.279" height="28.534" viewBox="0 0 25.279 28.534">
  <path id="Icon_awesome-trash-alt" data-name="Icon awesome-trash-alt" d="M1.806,25.859a2.692,2.692,0,0,0,2.708,2.675H20.765a2.692,2.692,0,0,0,2.708-2.675V7.133H1.806ZM17.154,11.592a.9.9,0,0,1,1.806,0V24.076a.9.9,0,0,1-1.806,0Zm-5.417,0a.9.9,0,0,1,1.806,0V24.076a.9.9,0,0,1-1.806,0Zm-5.417,0a.9.9,0,0,1,1.806,0V24.076a.9.9,0,0,1-1.806,0ZM24.376,1.783H17.605L17.075.741A1.356,1.356,0,0,0,15.862,0H9.412A1.34,1.34,0,0,0,8.2.741l-.53,1.042H.9a.9.9,0,0,0-.9.892V4.458a.9.9,0,0,0,.9.892H24.376a.9.9,0,0,0,.9-.892V2.675A.9.9,0,0,0,24.376,1.783Z" transform="translate(0 0)" fill="#9f2828"/>
</svg>